<?xml version="1.0" encoding="UTF-8" standalone="no"?>
<svg
   xmlns:dc="http://purl.org/dc/elements/1.1/"
   xmlns:cc="http://creativecommons.org/ns#"
   xmlns:rdf="http://www.w3.org/1999/02/22-rdf-syntax-ns#"
   xmlns:svg="http://www.w3.org/2000/svg"
   xmlns="http://www.w3.org/2000/svg"
   xmlns:sodipodi="http://sodipodi.sourceforge.net/DTD/sodipodi-0.dtd"
   xmlns:inkscape="http://www.inkscape.org/namespaces/inkscape"
   version="1.1"
   width="240"
   height="240"
   viewBox="0 0 24 24"
   id="svg64"
   sodipodi:docname="google-chrome.svg"
   inkscape:version="1.0.1 (3bc2e813f5, 2020-09-07)">
  <metadata
     id="metadata70">
    <rdf:RDF>
      <cc:Work
         rdf:about="">
        <dc:format>image/svg+xml</dc:format>
        <dc:type
           rdf:resource="http://purl.org/dc/dcmitype/StillImage" />
      </cc:Work>
    </rdf:RDF>
  </metadata>
  <defs
     id="defs68" />
  <sodipodi:namedview
     pagecolor="#ffffff"
     bordercolor="#666666"
     borderopacity="1"
     objecttolerance="10"
     gridtolerance="10"
     guidetolerance="10"
     inkscape:pageopacity="0"
     inkscape:pageshadow="2"
     inkscape:window-width="1872"
     inkscape:window-height="1032"
     id="namedview66"
     showgrid="false"
     inkscape:zoom="3.4833333"
     inkscape:cx="120"
     inkscape:cy="120"
     inkscape:window-x="48"
     inkscape:window-y="48"
     inkscape:window-maximized="0"
     inkscape:current-layer="svg64"
     inkscape:document-rotation="0" />
  <path
     fill="#ffffff"
     d="M12,20L15.46,14H15.45C15.79,13.4 16,12.73 16,12C16,10.8 15.46,9.73 14.62,9H19.41C19.79,9.93 20,10.94 20,12A8,8 0 0,1 12,20M4,12C4,10.54 4.39,9.18 5.07,8L8.54,14H8.55C9.24,15.19 10.5,16 12,16C12.45,16 12.88,15.91 13.29,15.77L10.89,19.91C7,19.37 4,16.04 4,12M15,12A3,3 0 0,1 12,15A3,3 0 0,1 9,12A3,3 0 0,1 12,9A3,3 0 0,1 15,12M12,4C14.96,4 17.54,5.61 18.92,8H12C10.06,8 8.45,9.38 8.08,11.21L5.7,7.08C7.16,5.21 9.44,4 12,4M12,2A10,10 0 0,0 2,12A10,10 0 0,0 12,22A10,10 0 0,0 22,12A10,10 0 0,0 12,2Z"
     id="path62"
     style="fill:none" />
  <path
     style="fill:#00ff00;stroke-width:0.287081"
     d="M 105.45547,198.37592 C 98.255225,197.0331 91.815491,194.85402 84.688995,191.34893 71.759604,184.98977 61.349958,175.83425 53.342887,163.77932 46.420461,153.35737 42.067484,141.34623 40.597999,128.61244 c -0.451346,-3.91113 -0.454015,-13.37946 -0.0049,-17.22488 0.839014,-7.18312 2.706399,-14.546457 5.378507,-21.20815 1.572424,-3.920128 4.340859,-9.509554 4.71007,-9.509554 0.112664,0 7.800938,13.144737 17.085054,29.210524 9.284118,16.06579 17.648121,30.37321 18.586676,31.79426 6.204577,9.39426 15.076414,15.49977 25.608274,17.62337 5.94965,1.19966 11.19227,1.0813 17.27859,-0.39008 1.54818,-0.37428 2.86286,-0.63251 2.92152,-0.57385 0.19404,0.19404 -23.35206,40.60701 -23.64508,40.58287 -0.1579,-0.013 -1.53548,-0.25648 -3.06128,-0.54103 z"
     id="path84"
     transform="scale(0.1)" />
  <path
     style="fill:#ff0000;stroke-width:0.287081"
     d="m 68.919626,91.135677 -11.679727,-20.27454 1.23651,-1.616386 C 60.381285,66.754667 66.846146,60.381324 70.100958,57.784762 81.496704,48.693682 94.224787,43.187344 109.23445,40.855091 111.77521,40.4603 114.25568,40.342103 120,40.342103 c 7.97788,0 10.63383,0.268307 17.36842,1.754576 19.96319,4.405712 37.85178,16.804133 49.28419,34.158418 1.15686,1.756093 2.10337,3.269428 2.10337,3.362962 0,0.09354 -16.63277,0.212854 -36.96172,0.265149 -36.53299,0.09398 -36.99263,0.102186 -39.62636,0.707414 -15.263358,3.5075 -26.494925,13.795803 -30.624071,28.052158 -0.408799,1.41143 -0.788541,2.6115 -0.843873,2.66683 -0.05533,0.0553 -5.35648,-9.02294 -11.78033,-20.173933 z"
     id="path86"
     transform="scale(0.1)" />
  <path
     style="fill:#ffff00;stroke-width:0.287081"
     d="m 120.43062,199.74874 c 0,-0.0817 7.67943,-13.46365 17.06541,-29.73766 9.38597,-16.27401 17.64874,-30.7929 18.3617,-32.26421 2.83695,-5.85444 4.19093,-11.58382 4.18896,-17.72569 -0.003,-10.62893 -3.81831,-20.01135 -11.30271,-27.797979 l -2.00216,-2.083019 23.6604,0.07345 23.6604,0.07345 1.10603,3.014354 c 3.52242,9.600004 5.18758,21.226224 4.50232,31.435404 -0.98903,14.73497 -5.30574,27.53691 -13.3586,39.61723 -13.91299,20.87126 -37.30996,34.17656 -62.19127,35.36671 -2.02976,0.0971 -3.69048,0.10967 -3.69048,0.028 z"
     id="path88"
     transform="scale(0.1)" />
  <path
     style="fill:#0000ff;stroke-width:0"
     d="m 6310.685,0 c 10450.406,0 20401.274,0 28012.86,0 6232.249,0 12186.556,0 14556.063,0 970.36,0 1120.392,0 1120.392,0 0,0 -768.966,0 -4560.31,0 C 38923.533,0 27217.11,0 12378.635,0 8331.002,0 6817.088,0 0.002,0 c -6817.086,0 -8331,0 -12378.634,0 -14726.501,0 -26174.34,0 -32782.122,0 C -49214.61,0 -50000,0 -50000,0 c 0,0 768.971,0 4560.309,0 6568.484,0 18904.168,0 33723.569,0 3880.011,0 14694.729,0 18026.807,0 z"
     id="path90" />
  <path
     style="fill:none;fill-opacity:0;stroke-width:0.287081"
     d="M 114.25837,219.72641 C 89.284157,217.91396 67.889239,208.423 50.272621,191.34181 33.85725,175.42536 23.603151,154.51756 20.774579,131.19617 20.08244,125.48953 20.081883,114.51856 20.773442,108.80383 23.510479,86.18621 32.908121,66.455463 48.649799,50.276241 62.798595,35.734176 81.04649,25.879784 101.05263,21.977193 c 11.81264,-2.304286 25.64919,-2.349712 37.32058,-0.122523 13.7092,2.616054 27.07602,8.186361 38.32536,15.971185 9.19417,6.362601 18.36603,15.485921 25.0339,24.901417 8.0308,11.340055 13.73253,24.853522 16.41286,38.899518 2.17607,11.40353 2.17783,25.26526 0.005,36.74642 -3.80904,20.12359 -13.81125,38.7618 -28.42793,52.97281 -4.08438,3.97103 -5.45331,5.14729 -10.00913,8.6004 -13.74564,10.41859 -30.72558,17.1757 -48.3732,19.24994 -3.68093,0.43264 -14.00792,0.7531 -17.08134,0.53005 z m 13.0622,-19.9236 c 14.94909,-1.3842 28.81056,-6.75151 41.05264,-15.89602 4.55442,-3.40204 12.13154,-10.97916 15.53358,-15.53358 11.25713,-15.07032 16.67037,-32.154 16.10103,-50.8134 -0.26571,-8.7084 -1.69607,-16.42067 -4.5124,-24.330145 l -1.20109,-3.373206 h -24.08497 c -13.24672,0 -24.08491,0.0323 -24.08485,0.07177 6e-5,0.03947 0.96436,1.070952 2.14291,2.29217 6.64666,6.887365 10.37172,14.735541 11.37087,23.956801 0.76611,7.07054 -0.73325,14.74251 -4.25367,21.76538 -0.71235,1.42106 -8.8926,15.76077 -18.17835,31.86603 -9.28575,16.10527 -16.96969,29.50838 -17.07544,29.78469 -0.17235,0.45038 0.0264,0.50237 1.91979,0.50215 1.16164,-1.3e-4 3.53311,-0.13182 5.26995,-0.29264 z m -6.48861,-20.93539 c 6.49306,-11.20186 11.88835,-20.5828 11.98955,-20.84652 0.14516,-0.37828 0.0629,-0.44108 -0.38949,-0.29748 -4.83665,1.53509 -10.41188,2.32518 -14.5631,2.06378 C 104.83185,158.96629 93.632486,152.29303 86.267159,140.95694 85.805515,140.24641 77.653556,126.22967 68.151694,109.80861 58.649836,93.38756 50.770337,79.970982 50.641696,79.993995 c -0.391909,0.07011 -3.735862,6.910806 -5.265853,10.772311 -2.178446,5.498127 -3.83448,11.792504 -4.783388,18.181064 -0.608502,4.09676 -0.826173,13.02022 -0.43203,17.71113 3.022965,35.97799 29.538454,65.26208 65.198425,72.00609 1.5,0.28368 2.93884,0.52795 3.19742,0.54282 0.33025,0.019 3.98276,-6.03296 12.27569,-20.33999 z m 6.66628,-29.68434 c 10.55624,-2.71362 18.8577,-10.97895 21.69034,-21.59592 0.67669,-2.53628 0.76048,-3.37221 0.76048,-7.58716 0,-4.17965 -0.0868,-5.06167 -0.73792,-7.49824 -1.4433,-5.40105 -4.00676,-9.85405 -7.93281,-13.780091 -3.92604,-3.926044 -8.37904,-6.489509 -13.78009,-7.93281 -2.43657,-0.651118 -3.31859,-0.73792 -7.49824,-0.73792 -4.17965,0 -5.06167,0.0868 -7.49824,0.73792 -5.40105,1.443301 -9.85405,4.006766 -13.780091,7.93281 -3.926044,3.926041 -6.489509,8.379041 -7.93281,13.780091 -0.651118,2.43657 -0.73792,3.31859 -0.73792,7.49824 0,4.17965 0.0868,5.06167 0.73792,7.49824 1.443301,5.40105 4.006766,9.85405 7.93281,13.78009 4.655821,4.65582 10.326021,7.53842 16.852901,8.56762 2.94363,0.46417 8.8075,0.13818 11.92367,-0.66287 z M 82.302163,107.36842 c 4.331662,-13.280422 15.519379,-23.1871 29.889507,-26.467041 2.78415,-0.635472 2.78787,-0.635538 39.88967,-0.730815 20.40789,-0.05241 37.10526,-0.200164 37.10526,-0.328352 0,-0.471815 -3.2693,-5.440005 -5.6895,-8.64604 -3.02116,-4.002127 -9.75211,-10.86193 -13.74792,-14.011097 -8.21197,-6.47199 -18.36267,-11.673371 -27.89185,-14.292223 -30.05791,-8.260656 -61.114061,0.850398 -81.797061,23.9971 -1.340339,1.5 -2.617458,3.002451 -2.838037,3.338781 -0.373008,0.568749 0.354927,1.923787 10.409994,19.377991 5.946075,10.321565 11.338195,19.670786 11.982486,20.776056 l 1.171438,2.00956 0.266411,-1.00478 c 0.146527,-0.55263 0.708847,-2.36124 1.249602,-4.01914 z"
     id="path222"
     transform="scale(0.1)" />
  <path
     style="fill:none;fill-opacity:0;stroke-width:0.287081"
     d="M 114.25837,219.72641 C 89.284157,217.91396 67.889239,208.423 50.272621,191.34181 33.85725,175.42536 23.603151,154.51756 20.774579,131.19617 20.08244,125.48953 20.081883,114.51856 20.773442,108.80383 23.510479,86.18621 32.908121,66.455463 48.649799,50.276241 62.798595,35.734176 81.04649,25.879784 101.05263,21.977193 c 11.81264,-2.304286 25.64919,-2.349712 37.32058,-0.122523 13.7092,2.616054 27.07602,8.186361 38.32536,15.971185 9.19417,6.362601 18.36603,15.485921 25.0339,24.901417 8.0308,11.340055 13.73253,24.853522 16.41286,38.899518 2.17607,11.40353 2.17783,25.26526 0.005,36.74642 -3.80904,20.12359 -13.81125,38.7618 -28.42793,52.97281 -4.08438,3.97103 -5.45331,5.14729 -10.00913,8.6004 -13.74564,10.41859 -30.72558,17.1757 -48.3732,19.24994 -3.68093,0.43264 -14.00792,0.7531 -17.08134,0.53005 z m 13.0622,-19.9236 c 14.94909,-1.3842 28.81056,-6.75151 41.05264,-15.89602 4.55442,-3.40204 12.13154,-10.97916 15.53358,-15.53358 11.25713,-15.07032 16.67037,-32.154 16.10103,-50.8134 -0.26571,-8.7084 -1.69607,-16.42067 -4.5124,-24.330145 l -1.20109,-3.373206 h -24.08497 c -13.24672,0 -24.08491,0.0323 -24.08485,0.07177 6e-5,0.03947 0.96436,1.070952 2.14291,2.29217 6.64666,6.887365 10.37172,14.735541 11.37087,23.956801 0.76611,7.07054 -0.73325,14.74251 -4.25367,21.76538 -0.71235,1.42106 -8.8926,15.76077 -18.17835,31.86603 -9.28575,16.10527 -16.96969,29.50838 -17.07544,29.78469 -0.17235,0.45038 0.0264,0.50237 1.91979,0.50215 1.16164,-1.3e-4 3.53311,-0.13182 5.26995,-0.29264 z m -6.48861,-20.93539 c 6.49306,-11.20186 11.88835,-20.5828 11.98955,-20.84652 0.14516,-0.37828 0.0629,-0.44108 -0.38949,-0.29748 -4.83665,1.53509 -10.41188,2.32518 -14.5631,2.06378 C 104.83185,158.96629 93.632486,152.29303 86.267159,140.95694 85.805515,140.24641 77.653556,126.22967 68.151694,109.80861 58.649836,93.38756 50.770337,79.970982 50.641696,79.993995 c -0.391909,0.07011 -3.735862,6.910806 -5.265853,10.772311 -2.178446,5.498127 -3.83448,11.792504 -4.783388,18.181064 -0.608502,4.09676 -0.826173,13.02022 -0.43203,17.71113 3.022965,35.97799 29.538454,65.26208 65.198425,72.00609 1.5,0.28368 2.93884,0.52795 3.19742,0.54282 0.33025,0.019 3.98276,-6.03296 12.27569,-20.33999 z m 6.66628,-29.68434 c 10.55624,-2.71362 18.8577,-10.97895 21.69034,-21.59592 0.67669,-2.53628 0.76048,-3.37221 0.76048,-7.58716 0,-4.17965 -0.0868,-5.06167 -0.73792,-7.49824 -1.4433,-5.40105 -4.00676,-9.85405 -7.93281,-13.780091 -3.92604,-3.926044 -8.37904,-6.489509 -13.78009,-7.93281 -2.43657,-0.651118 -3.31859,-0.73792 -7.49824,-0.73792 -4.17965,0 -5.06167,0.0868 -7.49824,0.73792 -5.40105,1.443301 -9.85405,4.006766 -13.780091,7.93281 -3.926044,3.926041 -6.489509,8.379041 -7.93281,13.780091 -0.651118,2.43657 -0.73792,3.31859 -0.73792,7.49824 0,4.17965 0.0868,5.06167 0.73792,7.49824 1.443301,5.40105 4.006766,9.85405 7.93281,13.78009 4.655821,4.65582 10.326021,7.53842 16.852901,8.56762 2.94363,0.46417 8.8075,0.13818 11.92367,-0.66287 z M 82.302163,107.36842 c 4.331662,-13.280422 15.519379,-23.1871 29.889507,-26.467041 2.78415,-0.635472 2.78787,-0.635538 39.88967,-0.730815 20.40789,-0.05241 37.10526,-0.200164 37.10526,-0.328352 0,-0.471815 -3.2693,-5.440005 -5.6895,-8.64604 -3.02116,-4.002127 -9.75211,-10.86193 -13.74792,-14.011097 -8.21197,-6.47199 -18.36267,-11.673371 -27.89185,-14.292223 -30.05791,-8.260656 -61.114061,0.850398 -81.797061,23.9971 -1.340339,1.5 -2.617458,3.002451 -2.838037,3.338781 -0.373008,0.568749 0.354927,1.923787 10.409994,19.377991 5.946075,10.321565 11.338195,19.670786 11.982486,20.776056 l 1.171438,2.00956 0.266411,-1.00478 c 0.146527,-0.55263 0.708847,-2.36124 1.249602,-4.01914 z"
     id="path224"
     transform="scale(0.1)" />
  <path
     style="fill:none;fill-opacity:0;stroke-width:0.287081"
     d="M 114.25837,219.72641 C 89.284157,217.91396 67.889239,208.423 50.272621,191.34181 33.85725,175.42536 23.603151,154.51756 20.774579,131.19617 20.08244,125.48953 20.081883,114.51856 20.773442,108.80383 23.510479,86.18621 32.908121,66.455463 48.649799,50.276241 62.798595,35.734176 81.04649,25.879784 101.05263,21.977193 c 11.81264,-2.304286 25.64919,-2.349712 37.32058,-0.122523 13.7092,2.616054 27.07602,8.186361 38.32536,15.971185 9.19417,6.362601 18.36603,15.485921 25.0339,24.901417 8.0308,11.340055 13.73253,24.853522 16.41286,38.899518 2.17607,11.40353 2.17783,25.26526 0.005,36.74642 -3.80904,20.12359 -13.81125,38.7618 -28.42793,52.97281 -4.08438,3.97103 -5.45331,5.14729 -10.00913,8.6004 -13.74564,10.41859 -30.72558,17.1757 -48.3732,19.24994 -3.68093,0.43264 -14.00792,0.7531 -17.08134,0.53005 z m 13.0622,-19.9236 c 14.94909,-1.3842 28.81056,-6.75151 41.05264,-15.89602 4.55442,-3.40204 12.13154,-10.97916 15.53358,-15.53358 11.25713,-15.07032 16.67037,-32.154 16.10103,-50.8134 -0.26571,-8.7084 -1.69607,-16.42067 -4.5124,-24.330145 l -1.20109,-3.373206 h -24.08497 c -13.24672,0 -24.08491,0.0323 -24.08485,0.07177 6e-5,0.03947 0.96436,1.070952 2.14291,2.29217 6.64666,6.887365 10.37172,14.735541 11.37087,23.956801 0.76611,7.07054 -0.73325,14.74251 -4.25367,21.76538 -0.71235,1.42106 -8.8926,15.76077 -18.17835,31.86603 -9.28575,16.10527 -16.96969,29.50838 -17.07544,29.78469 -0.17235,0.45038 0.0264,0.50237 1.91979,0.50215 1.16164,-1.3e-4 3.53311,-0.13182 5.26995,-0.29264 z m -6.48861,-20.93539 c 6.49306,-11.20186 11.88835,-20.5828 11.98955,-20.84652 0.14516,-0.37828 0.0629,-0.44108 -0.38949,-0.29748 -4.83665,1.53509 -10.41188,2.32518 -14.5631,2.06378 C 104.83185,158.96629 93.632486,152.29303 86.267159,140.95694 85.805515,140.24641 77.653556,126.22967 68.151694,109.80861 58.649836,93.38756 50.770337,79.970982 50.641696,79.993995 c -0.391909,0.07011 -3.735862,6.910806 -5.265853,10.772311 -2.178446,5.498127 -3.83448,11.792504 -4.783388,18.181064 -0.608502,4.09676 -0.826173,13.02022 -0.43203,17.71113 3.022965,35.97799 29.538454,65.26208 65.198425,72.00609 1.5,0.28368 2.93884,0.52795 3.19742,0.54282 0.33025,0.019 3.98276,-6.03296 12.27569,-20.33999 z m 6.66628,-29.68434 c 10.55624,-2.71362 18.8577,-10.97895 21.69034,-21.59592 0.67669,-2.53628 0.76048,-3.37221 0.76048,-7.58716 0,-4.17965 -0.0868,-5.06167 -0.73792,-7.49824 -1.4433,-5.40105 -4.00676,-9.85405 -7.93281,-13.780091 -3.92604,-3.926044 -8.37904,-6.489509 -13.78009,-7.93281 -2.43657,-0.651118 -3.31859,-0.73792 -7.49824,-0.73792 -4.17965,0 -5.06167,0.0868 -7.49824,0.73792 -5.40105,1.443301 -9.85405,4.006766 -13.780091,7.93281 -3.926044,3.926041 -6.489509,8.379041 -7.93281,13.780091 -0.651118,2.43657 -0.73792,3.31859 -0.73792,7.49824 0,4.17965 0.0868,5.06167 0.73792,7.49824 1.443301,5.40105 4.006766,9.85405 7.93281,13.78009 4.655821,4.65582 10.326021,7.53842 16.852901,8.56762 2.94363,0.46417 8.8075,0.13818 11.92367,-0.66287 z M 82.302163,107.36842 c 4.331662,-13.280422 15.519379,-23.1871 29.889507,-26.467041 2.78415,-0.635472 2.78787,-0.635538 39.88967,-0.730815 20.40789,-0.05241 37.10526,-0.200164 37.10526,-0.328352 0,-0.471815 -3.2693,-5.440005 -5.6895,-8.64604 -3.02116,-4.002127 -9.75211,-10.86193 -13.74792,-14.011097 -8.21197,-6.47199 -18.36267,-11.673371 -27.89185,-14.292223 -30.05791,-8.260656 -61.114061,0.850398 -81.797061,23.9971 -1.340339,1.5 -2.617458,3.002451 -2.838037,3.338781 -0.373008,0.568749 0.354927,1.923787 10.409994,19.377991 5.946075,10.321565 11.338195,19.670786 11.982486,20.776056 l 1.171438,2.00956 0.266411,-1.00478 c 0.146527,-0.55263 0.708847,-2.36124 1.249602,-4.01914 z"
     id="path226"
     transform="scale(0.1)" />
  <path
     style="fill:none;fill-opacity:0;stroke-width:0.287081"
     d="M 114.25837,219.72641 C 89.284157,217.91396 67.889239,208.423 50.272621,191.34181 33.85725,175.42536 23.603151,154.51756 20.774579,131.19617 20.08244,125.48953 20.081883,114.51856 20.773442,108.80383 23.510479,86.18621 32.908121,66.455463 48.649799,50.276241 62.798595,35.734176 81.04649,25.879784 101.05263,21.977193 c 11.81264,-2.304286 25.64919,-2.349712 37.32058,-0.122523 13.7092,2.616054 27.07602,8.186361 38.32536,15.971185 9.19417,6.362601 18.36603,15.485921 25.0339,24.901417 8.0308,11.340055 13.73253,24.853522 16.41286,38.899518 2.17607,11.40353 2.17783,25.26526 0.005,36.74642 -3.80904,20.12359 -13.81125,38.7618 -28.42793,52.97281 -4.08438,3.97103 -5.45331,5.14729 -10.00913,8.6004 -13.74564,10.41859 -30.72558,17.1757 -48.3732,19.24994 -3.68093,0.43264 -14.00792,0.7531 -17.08134,0.53005 z m 13.0622,-19.9236 c 14.94909,-1.3842 28.81056,-6.75151 41.05264,-15.89602 4.55442,-3.40204 12.13154,-10.97916 15.53358,-15.53358 11.25713,-15.07032 16.67037,-32.154 16.10103,-50.8134 -0.26571,-8.7084 -1.69607,-16.42067 -4.5124,-24.330145 l -1.20109,-3.373206 h -24.08497 c -13.24672,0 -24.08491,0.0323 -24.08485,0.07177 6e-5,0.03947 0.96436,1.070952 2.14291,2.29217 6.64666,6.887365 10.37172,14.735541 11.37087,23.956801 0.76611,7.07054 -0.73325,14.74251 -4.25367,21.76538 -0.71235,1.42106 -8.8926,15.76077 -18.17835,31.86603 -9.28575,16.10527 -16.96969,29.50838 -17.07544,29.78469 -0.17235,0.45038 0.0264,0.50237 1.91979,0.50215 1.16164,-1.3e-4 3.53311,-0.13182 5.26995,-0.29264 z m -6.48861,-20.93539 c 6.49306,-11.20186 11.88835,-20.5828 11.98955,-20.84652 0.14516,-0.37828 0.0629,-0.44108 -0.38949,-0.29748 -4.83665,1.53509 -10.41188,2.32518 -14.5631,2.06378 C 104.83185,158.96629 93.632486,152.29303 86.267159,140.95694 85.805515,140.24641 77.653556,126.22967 68.151694,109.80861 58.649836,93.38756 50.770337,79.970982 50.641696,79.993995 c -0.391909,0.07011 -3.735862,6.910806 -5.265853,10.772311 -2.178446,5.498127 -3.83448,11.792504 -4.783388,18.181064 -0.608502,4.09676 -0.826173,13.02022 -0.43203,17.71113 3.022965,35.97799 29.538454,65.26208 65.198425,72.00609 1.5,0.28368 2.93884,0.52795 3.19742,0.54282 0.33025,0.019 3.98276,-6.03296 12.27569,-20.33999 z m 6.66628,-29.68434 c 10.55624,-2.71362 18.8577,-10.97895 21.69034,-21.59592 0.67669,-2.53628 0.76048,-3.37221 0.76048,-7.58716 0,-4.17965 -0.0868,-5.06167 -0.73792,-7.49824 -1.4433,-5.40105 -4.00676,-9.85405 -7.93281,-13.780091 -3.92604,-3.926044 -8.37904,-6.489509 -13.78009,-7.93281 -2.43657,-0.651118 -3.31859,-0.73792 -7.49824,-0.73792 -4.17965,0 -5.06167,0.0868 -7.49824,0.73792 -5.40105,1.443301 -9.85405,4.006766 -13.780091,7.93281 -3.926044,3.926041 -6.489509,8.379041 -7.93281,13.780091 -0.651118,2.43657 -0.73792,3.31859 -0.73792,7.49824 0,4.17965 0.0868,5.06167 0.73792,7.49824 1.443301,5.40105 4.006766,9.85405 7.93281,13.78009 4.655821,4.65582 10.326021,7.53842 16.852901,8.56762 2.94363,0.46417 8.8075,0.13818 11.92367,-0.66287 z M 82.302163,107.36842 c 4.331662,-13.280422 15.519379,-23.1871 29.889507,-26.467041 2.78415,-0.635472 2.78787,-0.635538 39.88967,-0.730815 20.40789,-0.05241 37.10526,-0.200164 37.10526,-0.328352 0,-0.471815 -3.2693,-5.440005 -5.6895,-8.64604 -3.02116,-4.002127 -9.75211,-10.86193 -13.74792,-14.011097 -8.21197,-6.47199 -18.36267,-11.673371 -27.89185,-14.292223 -30.05791,-8.260656 -61.114061,0.850398 -81.797061,23.9971 -1.340339,1.5 -2.617458,3.002451 -2.838037,3.338781 -0.373008,0.568749 0.354927,1.923787 10.409994,19.377991 5.946075,10.321565 11.338195,19.670786 11.982486,20.776056 l 1.171438,2.00956 0.266411,-1.00478 c 0.146527,-0.55263 0.708847,-2.36124 1.249602,-4.01914 z"
     id="path228"
     transform="scale(0.1)" />
</svg>
