<?xml version="1.0" encoding="UTF-8" standalone="no"?>
<svg
   xmlns:dc="http://purl.org/dc/elements/1.1/"
   xmlns:cc="http://creativecommons.org/ns#"
   xmlns:rdf="http://www.w3.org/1999/02/22-rdf-syntax-ns#"
   xmlns:svg="http://www.w3.org/2000/svg"
   xmlns="http://www.w3.org/2000/svg"
   xmlns:sodipodi="http://sodipodi.sourceforge.net/DTD/sodipodi-0.dtd"
   xmlns:inkscape="http://www.inkscape.org/namespaces/inkscape"
   version="1.1"
   width="240"
   height="240"
   viewBox="0 0 24 24"
   id="svg134"
   sodipodi:docname="music.svg"
   inkscape:version="1.0.1 (3bc2e813f5, 2020-09-07)">
  <metadata
     id="metadata140">
    <rdf:RDF>
      <cc:Work
         rdf:about="">
        <dc:format>image/svg+xml</dc:format>
        <dc:type
           rdf:resource="http://purl.org/dc/dcmitype/StillImage" />
      </cc:Work>
    </rdf:RDF>
  </metadata>
  <defs
     id="defs138" />
  <sodipodi:namedview
     pagecolor="#ffffff"
     bordercolor="#666666"
     borderopacity="1"
     objecttolerance="10"
     gridtolerance="10"
     guidetolerance="10"
     inkscape:pageopacity="0"
     inkscape:pageshadow="2"
     inkscape:window-width="1872"
     inkscape:window-height="1032"
     id="namedview136"
     showgrid="false"
     inkscape:zoom="3.6833333"
     inkscape:cx="120"
     inkscape:cy="120"
     inkscape:window-x="48"
     inkscape:window-y="48"
     inkscape:window-maximized="0"
     inkscape:current-layer="svg134" />
  <path
     fill="#ffffff"
     d="M21,3V15.5A3.5,3.5 0 0,1 17.5,19A3.5,3.5 0 0,1 14,15.5A3.5,3.5 0 0,1 17.5,12C18.04,12 18.55,12.12 19,12.34V6.47L9,8.6V17.5A3.5,3.5 0 0,1 5.5,21A3.5,3.5 0 0,1 2,17.5A3.5,3.5 0 0,1 5.5,14C6.04,14 6.55,14.12 7,14.34V6L21,3Z"
     id="path132"
     style="fill:#00ff00" />
</svg>
